<?xml version="1.0" encoding="utf-8"?>
<!-- Generator: Adobe Illustrator 17.1.0, SVG Export Plug-In . SVG Version: 6.00 Build 0)  -->
<!DOCTYPE svg PUBLIC "-//W3C//DTD SVG 1.1//EN" "http://www.w3.org/Graphics/SVG/1.1/DTD/svg11.dtd">
<svg version="1.1" id="Layer_1" xmlns="http://www.w3.org/2000/svg" xmlns:xlink="http://www.w3.org/1999/xlink" x="0px" y="0px"
	 viewBox="0 0 841.9 1190.6" enable-background="new 0 0 841.9 1190.6" xml:space="preserve">
<path fill="#39B1B7" d="M809.1,621.1c-269.7,0-539.4,0-809.1,0c0-23.6,0-28,0-51.7c35.5,3.3,70.9,6.7,106.5,10
	c34.5,3.2,69,6.3,103.6,9.2c33.7,2.8,67.4,5.3,101,7.3c21.7,1.2,43.3,2.1,65,2.7c28.3,0.8,56.7,0.9,85.1,0.2
	c33.4-0.8,66.8-2.4,100.2-4.9c27.2-2,54.4-3.9,81.5-6.2c25.9-2.1,51.7-4.6,77.5-6.9c22.4-2,44.7-4,67.1-6.1
	c17.3-1.6,34.5-3.2,51.7-5c2-0.2,2.9,0,2.9,2.4c-0.1,21.9-0.1,24.6,0,46.4c0,2.1-0.4,2.9-2.6,2.8L809.1,621.1z"/>
</svg>
