<?xml version="1.0" encoding="utf-8"?>
<!-- Generator: Adobe Illustrator 17.1.0, SVG Export Plug-In . SVG Version: 6.00 Build 0)  -->
<!DOCTYPE svg PUBLIC "-//W3C//DTD SVG 1.1//EN" "http://www.w3.org/Graphics/SVG/1.1/DTD/svg11.dtd">
<svg version="1.1" id="Layer_1" xmlns="http://www.w3.org/2000/svg" xmlns:xlink="http://www.w3.org/1999/xlink" x="0px" y="0px"
	 viewBox="0 0 960 59" enable-background="new 0 0 960 59" xml:space="preserve">
<path opacity="0.3" fill="#FFFFFF" d="M922.6,58.9c-307.5,0-615.1,0-922.6,0C0,32,0,27,0,0c40.5,3.8,80.9,7.6,121.4,11.4
	c39.3,3.7,78.7,7.2,118.1,10.5c38.4,3.2,76.8,6.1,115.2,8.3c24.7,1.4,49.4,2.4,74.1,3.1c32.3,0.9,64.7,1,97,0.2
	c38.1-0.9,76.2-2.7,114.3-5.6c31-2.3,62-4.5,92.9-7.1c29.5-2.4,58.9-5.3,88.4-7.9c25.5-2.3,51-4.6,76.5-7c19.7-1.8,39.3-3.7,59-5.7
	c2.3-0.2,3.3,0,3.3,2.7c-0.1,25-0.1,28,0,52.9c0,2.4-0.5,3.3-3,3.2L922.6,58.9z"/>
</svg>
