<?xml version="1.0" encoding="utf-8"?>
<!-- Generator: Adobe Illustrator 17.1.0, SVG Export Plug-In . SVG Version: 6.00 Build 0)  -->
<!DOCTYPE svg PUBLIC "-//W3C//DTD SVG 1.1//EN" "http://www.w3.org/Graphics/SVG/1.1/DTD/svg11.dtd">
<svg version="1.1" id="Layer_1" xmlns="http://www.w3.org/2000/svg" xmlns:xlink="http://www.w3.org/1999/xlink" x="0px" y="0px"
	 viewBox="0 0 36 36" enable-background="new 0 0 36 36" xml:space="preserve">
<g>
	<path fill="#FFFFFF" d="M11,17.3c0.6,0,1.2-0.4,1.4-0.9c1-2.4,3.3-4,6-4c1.5,0,2.9,0.5,4,1.4l-0.9,0.1c-0.3,0-0.5,0.3-0.6,0.6
		c0,0.3,0.1,0.6,0.4,0.7l4.7,2.1c0.2,0.1,0.4,0.1,0.6,0c0.2-0.1,0.3-0.3,0.3-0.6l0-5.2c0-0.3-0.2-0.6-0.5-0.6
		c-0.3-0.1-0.6,0-0.8,0.3l-0.7,1c-1.7-1.7-4.1-2.8-6.8-2.8c-4,0-7.4,2.4-8.9,5.9c-0.2,0.5-0.2,1,0.1,1.5C10,17,10.5,17.3,11,17.3
		L11,17.3z"/>
	<path fill="#FFFFFF" d="M27.2,21.1c-0.3-0.4-0.8-0.7-1.3-0.7c-0.6,0-1.2,0.4-1.4,0.9c-1,2.4-3.3,4-6,4c-1.5,0-2.9-0.5-4-1.4
		l0.9-0.1c0.3,0,0.5-0.3,0.6-0.6c0-0.3-0.1-0.6-0.4-0.7l-4.7-2.1c-0.2-0.1-0.4-0.1-0.6,0c-0.2,0.1-0.3,0.3-0.3,0.6l0,5.2
		c0,0.3,0.2,0.6,0.5,0.6c0.3,0.1,0.6,0,0.8-0.3l0.7-1c1.7,1.7,4.1,2.8,6.8,2.8c4,0,7.4-2.4,8.9-5.9C27.5,22.1,27.5,21.6,27.2,21.1
		L27.2,21.1z"/>
</g>
</svg>
