<?xml version="1.0" encoding="utf-8"?>
<!-- Generator: Adobe Illustrator 17.1.0, SVG Export Plug-In . SVG Version: 6.00 Build 0)  -->
<!DOCTYPE svg PUBLIC "-//W3C//DTD SVG 1.1//EN" "http://www.w3.org/Graphics/SVG/1.1/DTD/svg11.dtd">
<svg version="1.1" id="Layer_1" xmlns="http://www.w3.org/2000/svg" xmlns:xlink="http://www.w3.org/1999/xlink" x="0px" y="0px"
	 viewBox="0 0 121 30" enable-background="new 0 0 121 30" xml:space="preserve">
<g>
	<g>
		<path fill="#666666" d="M38.2,11.4V2.8H40v7.1h3.5v1.5H38.2z"/>
		<path fill="#666666" d="M44.7,3.1c0-0.6,0.3-0.9,1-0.9s1,0.3,1,0.9c0,0.3-0.1,0.5-0.2,0.6S46,4,45.7,4C45.1,4,44.7,3.7,44.7,3.1z
			 M46.6,11.4h-1.8V4.8h1.8V11.4z"/>
		<path fill="#666666" d="M53,9.4c0,0.7-0.2,1.2-0.7,1.5s-1.2,0.5-2.1,0.5c-0.5,0-0.9,0-1.2-0.1s-0.7-0.2-0.9-0.3V9.6
			c0.3,0.2,0.7,0.3,1.1,0.4s0.8,0.2,1.1,0.2c0.6,0,1-0.2,1-0.6c0-0.1,0-0.3-0.1-0.3S50.9,9.1,50.7,9s-0.5-0.2-0.8-0.4
			C49.4,8.4,49,8.2,48.8,8s-0.4-0.4-0.5-0.6s-0.2-0.5-0.2-0.9c0-0.6,0.2-1,0.7-1.4s1.1-0.5,1.9-0.5c0.8,0,1.6,0.2,2.3,0.5l-0.5,1.3
			c-0.3-0.1-0.6-0.3-0.9-0.3S50.9,6,50.6,6c-0.5,0-0.8,0.1-0.8,0.4c0,0.2,0.1,0.3,0.3,0.4s0.5,0.3,1.1,0.5c0.5,0.2,0.9,0.4,1.1,0.6
			s0.4,0.4,0.5,0.6S53,9.1,53,9.4z"/>
		<path fill="#666666" d="M57.2,10.1c0.3,0,0.7-0.1,1.1-0.2v1.3c-0.4,0.2-1,0.3-1.6,0.3c-0.7,0-1.2-0.2-1.6-0.5s-0.5-0.9-0.5-1.6
			V6.2h-0.9V5.4l1-0.6l0.5-1.4h1.1v1.4h1.8v1.3h-1.8v3.2c0,0.3,0.1,0.4,0.2,0.6S57,10.1,57.2,10.1z"/>
		<path fill="#666666" d="M63.8,11.4l-0.3-0.9h0c-0.3,0.4-0.6,0.6-0.9,0.8s-0.7,0.2-1.2,0.2c-0.6,0-1.1-0.2-1.5-0.5
			s-0.5-0.9-0.5-1.5c0-0.7,0.2-1.2,0.7-1.5s1.2-0.5,2.2-0.5l1.1,0V7c0-0.7-0.3-1-1-1c-0.5,0-1.1,0.2-1.8,0.5l-0.6-1.2
			c0.8-0.4,1.6-0.6,2.5-0.6c0.9,0,1.6,0.2,2,0.6s0.7,1,0.7,1.7v4.4H63.8z M63.3,8.3l-0.7,0c-0.5,0-0.9,0.1-1.2,0.3S61,9.1,61,9.4
			c0,0.5,0.3,0.8,0.9,0.8c0.4,0,0.7-0.1,1-0.4s0.4-0.6,0.4-0.9V8.3z"/>
		<path fill="#666666" d="M40.1,25.5c-0.8,0-1.4-0.3-1.8-0.9s-0.7-1.4-0.7-2.5c0-1.1,0.2-1.9,0.7-2.5s1.1-0.9,1.8-0.9
			c0.8,0,1.5,0.3,1.9,1h0.1C42,19.2,42,18.7,42,18.4v-2.1h1.8v9.1h-1.4L42,24.5H42C41.6,25.2,40.9,25.5,40.1,25.5z M40.7,24.1
			c0.5,0,0.8-0.1,1-0.4s0.3-0.7,0.3-1.4v-0.2c0-0.7-0.1-1.2-0.3-1.5s-0.6-0.5-1.1-0.5c-0.4,0-0.7,0.2-0.9,0.5s-0.3,0.8-0.3,1.5
			s0.1,1.1,0.3,1.5S40.3,24.1,40.7,24.1z"/>
		<path fill="#666666" d="M48.6,25.5c-1.1,0-1.9-0.3-2.5-0.9s-0.9-1.4-0.9-2.5c0-1.1,0.3-1.9,0.8-2.5s1.3-0.9,2.3-0.9
			c0.9,0,1.6,0.3,2.2,0.8s0.8,1.3,0.8,2.2v0.9H47c0,0.5,0.2,0.9,0.5,1.2s0.7,0.4,1.2,0.4c0.4,0,0.8,0,1.1-0.1s0.7-0.2,1.1-0.4V25
			c-0.3,0.2-0.6,0.3-1,0.3S49.1,25.5,48.6,25.5z M48.3,20c-0.4,0-0.7,0.1-0.9,0.4s-0.3,0.6-0.4,1h2.5c0-0.4-0.1-0.8-0.3-1
			S48.7,20,48.3,20z"/>
		<path fill="#666666" d="M52.6,17.1c0-0.6,0.3-0.9,1-0.9s1,0.3,1,0.9c0,0.3-0.1,0.5-0.2,0.6S53.9,18,53.6,18
			C53,18,52.6,17.7,52.6,17.1z M54.5,25.4h-1.8v-6.6h1.8V25.4z"/>
		<path fill="#666666" d="M61.6,25.5c-0.8,0-1.4-0.3-1.8-0.9s-0.7-1.4-0.7-2.5c0-1.1,0.2-1.9,0.7-2.5s1.1-0.9,1.8-0.9
			c0.8,0,1.5,0.3,1.9,1h0.1c-0.1-0.5-0.1-0.9-0.1-1.3v-2.1h1.8v9.1h-1.4l-0.3-0.8h-0.1C63,25.2,62.4,25.5,61.6,25.5z M62.2,24.1
			c0.5,0,0.8-0.1,1-0.4s0.3-0.7,0.3-1.4v-0.2c0-0.7-0.1-1.2-0.3-1.5s-0.6-0.5-1.1-0.5c-0.4,0-0.7,0.2-0.9,0.5s-0.3,0.8-0.3,1.5
			s0.1,1.1,0.3,1.5S61.8,24.1,62.2,24.1z"/>
		<path fill="#666666" d="M67,17.1c0-0.6,0.3-0.9,1-0.9s1,0.3,1,0.9c0,0.3-0.1,0.5-0.2,0.6S68.3,18,68,18C67.3,18,67,17.7,67,17.1z
			 M68.9,25.4h-1.8v-6.6h1.8V25.4z"/>
		<path fill="#666666" d="M75.3,23.4c0,0.7-0.2,1.2-0.7,1.5s-1.2,0.5-2.1,0.5c-0.5,0-0.9,0-1.2-0.1s-0.7-0.2-0.9-0.3v-1.5
			c0.3,0.2,0.7,0.3,1.1,0.4s0.8,0.2,1.1,0.2c0.6,0,1-0.2,1-0.6c0-0.1,0-0.3-0.1-0.3S73.2,23.1,73,23s-0.5-0.2-0.8-0.4
			c-0.5-0.2-0.9-0.4-1.1-0.6s-0.4-0.4-0.5-0.6s-0.2-0.5-0.2-0.9c0-0.6,0.2-1,0.7-1.4s1.1-0.5,1.9-0.5c0.8,0,1.6,0.2,2.3,0.5
			l-0.5,1.3c-0.3-0.1-0.6-0.3-0.9-0.3S73.2,20,72.9,20c-0.5,0-0.8,0.1-0.8,0.4c0,0.2,0.1,0.3,0.3,0.4s0.5,0.3,1.1,0.5
			c0.5,0.2,0.9,0.4,1.1,0.6s0.4,0.4,0.5,0.6S75.3,23.1,75.3,23.4z"/>
		<path fill="#666666" d="M80.3,25.5c-0.8,0-1.4-0.3-1.8-0.8h-0.1c0.1,0.5,0.1,0.9,0.1,0.9v2.7h-1.8v-9.4h1.5l0.3,0.8h0.1
			c0.4-0.6,1-1,1.9-1c0.8,0,1.4,0.3,1.8,0.9s0.7,1.4,0.7,2.5c0,0.7-0.1,1.3-0.3,1.8s-0.5,0.9-0.9,1.2S80.8,25.5,80.3,25.5z
			 M79.8,20.1c-0.4,0-0.8,0.1-1,0.4s-0.3,0.7-0.3,1.3v0.2c0,0.7,0.1,1.2,0.3,1.5s0.5,0.5,1,0.5c0.8,0,1.2-0.7,1.2-2
			c0-0.6-0.1-1.1-0.3-1.5S80.2,20.1,79.8,20.1z"/>
		<path fill="#666666" d="M90.3,22.1c0,1.1-0.3,1.9-0.8,2.5s-1.3,0.9-2.3,0.9c-0.6,0-1.2-0.1-1.7-0.4s-0.8-0.7-1.1-1.2
			s-0.4-1.1-0.4-1.8c0-1.1,0.3-1.9,0.8-2.5s1.3-0.9,2.4-0.9c0.6,0,1.2,0.1,1.7,0.4s0.8,0.7,1.1,1.2S90.3,21.4,90.3,22.1z M85.7,22.1
			c0,0.6,0.1,1.1,0.3,1.5s0.6,0.5,1,0.5c0.5,0,0.8-0.2,1-0.5s0.3-0.8,0.3-1.5c0-0.6-0.1-1.1-0.3-1.5s-0.6-0.5-1-0.5
			c-0.5,0-0.8,0.2-1,0.5S85.7,21.4,85.7,22.1z"/>
		<path fill="#666666" d="M96.3,23.4c0,0.7-0.2,1.2-0.7,1.5s-1.2,0.5-2.1,0.5c-0.5,0-0.9,0-1.2-0.1s-0.7-0.2-0.9-0.3v-1.5
			c0.3,0.2,0.7,0.3,1.1,0.4s0.8,0.2,1.1,0.2c0.6,0,1-0.2,1-0.6c0-0.1,0-0.3-0.1-0.3S94.2,23.1,94,23s-0.5-0.2-0.8-0.4
			c-0.5-0.2-0.9-0.4-1.1-0.6s-0.4-0.4-0.5-0.6s-0.2-0.5-0.2-0.9c0-0.6,0.2-1,0.7-1.4s1.1-0.5,1.9-0.5c0.8,0,1.6,0.2,2.3,0.5
			l-0.5,1.3c-0.3-0.1-0.6-0.3-0.9-0.3S94.2,20,93.9,20c-0.5,0-0.8,0.1-0.8,0.4c0,0.2,0.1,0.3,0.3,0.4s0.5,0.3,1.1,0.5
			c0.5,0.2,0.9,0.4,1.1,0.6s0.4,0.4,0.5,0.6S96.3,23.1,96.3,23.4z"/>
		<path fill="#666666" d="M97.6,17.1c0-0.6,0.3-0.9,1-0.9s1,0.3,1,0.9c0,0.3-0.1,0.5-0.2,0.6S98.9,18,98.6,18
			C98,18,97.6,17.7,97.6,17.1z M99.5,25.4h-1.8v-6.6h1.8V25.4z"/>
		<path fill="#666666" d="M104.1,24.1c0.3,0,0.7-0.1,1.1-0.2v1.3c-0.4,0.2-1,0.3-1.6,0.3c-0.7,0-1.2-0.2-1.6-0.5s-0.5-0.9-0.5-1.6
			v-3.2h-0.9v-0.8l1-0.6l0.5-1.4h1.1v1.4h1.8v1.3h-1.8v3.2c0,0.3,0.1,0.4,0.2,0.6S103.9,24.1,104.1,24.1z"/>
		<path fill="#666666" d="M106.5,17.1c0-0.6,0.3-0.9,1-0.9s1,0.3,1,0.9c0,0.3-0.1,0.5-0.2,0.6s-0.4,0.2-0.7,0.2
			C106.8,18,106.5,17.7,106.5,17.1z M108.4,25.4h-1.8v-6.6h1.8V25.4z"/>
		<path fill="#666666" d="M111.8,25.4l-2.5-6.6h1.9l1.3,3.7c0.1,0.5,0.2,0.9,0.3,1.3h0c0-0.4,0.1-0.8,0.3-1.3l1.3-3.7h1.9l-2.5,6.6
			H111.8z"/>
		<path fill="#666666" d="M117,17.1c0-0.6,0.3-0.9,1-0.9s1,0.3,1,0.9c0,0.3-0.1,0.5-0.2,0.6S118.3,18,118,18
			C117.3,18,117,17.7,117,17.1z M118.9,25.4h-1.8v-6.6h1.8V25.4z"/>
	</g>
	<g>
		<g>
			<path fill="#666666" d="M18.1,7.8L19.2,6c0-0.1,0.1-0.1,0.1-0.2V4.6c0-0.2-0.2-0.4-0.4-0.4h-1.1c-0.2,0-0.4,0.2-0.4,0.4v0.6
				c0,0.1-0.1,0.2-0.2,0.2H16c-0.1,0-0.2-0.1-0.2-0.2V4.6c0-0.2-0.2-0.4-0.4-0.4H14c-0.2,0-0.4,0.2-0.4,0.4v0.6
				c0,0.1-0.1,0.2-0.2,0.2h-1.1c-0.1,0-0.2-0.1-0.2-0.2V4.6c0-0.2-0.2-0.4-0.4-0.4h-1.1c-0.2,0-0.4,0.2-0.4,0.4v1.2
				c0,0.1,0,0.2,0.1,0.2l1.1,1.8c0,0.1,0.1,0.1,0.1,0.2v4.8c0,0.1-0.1,0.3-0.2,0.4l-0.8,0.5c-0.1,0.1-0.2,0.2-0.2,0.4v1.1
				c0,0.2,0.2,0.4,0.4,0.4h8.3c0.2,0,0.4-0.2,0.4-0.4V14c0-0.1-0.1-0.3-0.2-0.4l-0.8-0.5c-0.1-0.1-0.2-0.2-0.2-0.4V8
				C18,7.9,18.1,7.8,18.1,7.8L18.1,7.8z M15.8,10.3c0,0.2-0.1,0.3-0.3,0.3h-1.6c-0.2,0-0.3-0.1-0.3-0.3V8.9c0-0.6,0.5-1.1,1.1-1.1h0
				c0.6,0,1.1,0.5,1.1,1.1V10.3z M15.8,10.3"/>
		</g>
		<path fill="#666666" d="M26.1,21.4c-0.8,0.6-8.4,5.1-9.5,5.7c-1.3,0.7-1.6,0.8-3.5,0.2c-1.3-0.4-3.1-1-4.4-1.6
			c-1.2-0.5-2-0.6-2.9,0l-1.5,0.9l-3.1-7c0,0,2.6-1.2,4.1-1.8c2.5-1,3.3-0.5,4.7,0.4c0.6,0.4,2.5,1.8,2.5,1.8s1.2,1.1,3.7,1.1
			c1.5,0,2.5,0.2,2.5,1.1c0,1-1.9,1.1-1.9,1.1h-3.6c-1.6,0-3.8-0.9-3.8-0.9s1.9,2,3.8,2h3.6c1,0,3-0.5,3-2.2c0-2.2-2-2.2-4.5-2.2
			c-0.2,0-0.4,0-0.6-0.1c0.1-0.1,0.2-0.1,0.3-0.2c0.5-0.3,1.1-0.6,1.8-1.1c1.8-1.1,2.7-1.3,3.6-0.1c0.6-0.6,1.4-0.8,2.1-0.8
			c0.8,0,1.4,0.5,1.2,1.3c2-1.2,2.9-0.7,3.4-0.1C27.7,19.8,27.4,20.5,26.1,21.4L26.1,21.4z"/>
	</g>
</g>
</svg>
