<?xml version="1.0" encoding="utf-8"?>
<!-- Generator: Adobe Illustrator 17.1.0, SVG Export Plug-In . SVG Version: 6.00 Build 0)  -->
<!DOCTYPE svg PUBLIC "-//W3C//DTD SVG 1.1//EN" "http://www.w3.org/Graphics/SVG/1.1/DTD/svg11.dtd">
<svg version="1.1" id="Layer_1" xmlns="http://www.w3.org/2000/svg" xmlns:xlink="http://www.w3.org/1999/xlink" x="0px" y="0px"
	 viewBox="0 0 91 30" enable-background="new 0 0 91 30" xml:space="preserve">
<g>
	<g>
		<path fill="#666666" d="M41.3,11.4l-2.1-6.7h-0.1c0.1,1.4,0.1,2.3,0.1,2.7v4h-1.6V2.8h2.5l2,6.6h0l2.2-6.6h2.5v8.6h-1.7V7.3
			c0-0.2,0-0.4,0-0.7s0-0.9,0.1-2h-0.1l-2.2,6.7H41.3z"/>
		<path fill="#666666" d="M54.8,8.1c0,1.1-0.3,1.9-0.8,2.5s-1.3,0.9-2.3,0.9c-0.6,0-1.2-0.1-1.7-0.4s-0.8-0.7-1.1-1.2
			s-0.4-1.1-0.4-1.8c0-1.1,0.3-1.9,0.8-2.5s1.3-0.9,2.4-0.9c0.6,0,1.2,0.1,1.7,0.4s0.8,0.7,1.1,1.2S54.8,7.4,54.8,8.1z M50.2,8.1
			c0,0.6,0.1,1.1,0.3,1.5s0.6,0.5,1,0.5c0.5,0,0.8-0.2,1-0.5s0.3-0.8,0.3-1.5c0-0.6-0.1-1.1-0.3-1.5s-0.6-0.5-1-0.5
			c-0.5,0-0.8,0.2-1,0.5S50.2,7.4,50.2,8.1z"/>
		<path fill="#666666" d="M58.3,11.5c-0.8,0-1.4-0.3-1.8-0.9s-0.7-1.4-0.7-2.5c0-1.1,0.2-1.9,0.7-2.5s1.1-0.9,1.8-0.9
			c0.8,0,1.5,0.3,1.9,1h0.1c-0.1-0.5-0.1-0.9-0.1-1.3V2.3H62v9.1h-1.4l-0.3-0.8h-0.1C59.8,11.2,59.1,11.5,58.3,11.5z M58.9,10.1
			c0.5,0,0.8-0.1,1-0.4s0.3-0.7,0.3-1.4V8.1c0-0.7-0.1-1.2-0.3-1.5s-0.6-0.5-1.1-0.5c-0.4,0-0.7,0.2-0.9,0.5s-0.3,0.8-0.3,1.5
			s0.1,1.1,0.3,1.5S58.5,10.1,58.9,10.1z"/>
		<path fill="#666666" d="M68,11.4l-0.3-0.9h0c-0.3,0.4-0.6,0.6-0.9,0.8s-0.7,0.2-1.2,0.2c-0.6,0-1.1-0.2-1.5-0.5s-0.5-0.9-0.5-1.5
			c0-0.7,0.2-1.2,0.7-1.5s1.2-0.5,2.2-0.5l1.1,0V7c0-0.7-0.3-1-1-1c-0.5,0-1.1,0.2-1.8,0.5L64,5.3c0.8-0.4,1.6-0.6,2.5-0.6
			c0.9,0,1.6,0.2,2,0.6s0.7,1,0.7,1.7v4.4H68z M67.5,8.3l-0.7,0c-0.5,0-0.9,0.1-1.2,0.3s-0.4,0.4-0.4,0.8c0,0.5,0.3,0.8,0.9,0.8
			c0.4,0,0.7-0.1,1-0.4s0.4-0.6,0.4-0.9V8.3z"/>
		<path fill="#666666" d="M72.9,11.4h-1.8V2.3h1.8V11.4z"/>
		<path fill="#666666" d="M74.7,3.1c0-0.6,0.3-0.9,1-0.9s1,0.3,1,0.9c0,0.3-0.1,0.5-0.2,0.6S76,4,75.6,4C75,4,74.7,3.7,74.7,3.1z
			 M76.5,11.4h-1.8V4.8h1.8V11.4z"/>
		<path fill="#666666" d="M81.2,10.1c0.3,0,0.7-0.1,1.1-0.2v1.3c-0.4,0.2-1,0.3-1.6,0.3c-0.7,0-1.2-0.2-1.6-0.5s-0.5-0.9-0.5-1.6
			V6.2h-0.9V5.4l1-0.6l0.5-1.4h1.1v1.4h1.8v1.3h-1.8v3.2c0,0.3,0.1,0.4,0.2,0.6S80.9,10.1,81.2,10.1z"/>
		<path fill="#666666" d="M87.8,11.4l-0.3-0.9h0c-0.3,0.4-0.6,0.6-0.9,0.8s-0.7,0.2-1.2,0.2c-0.6,0-1.1-0.2-1.5-0.5
			s-0.5-0.9-0.5-1.5c0-0.7,0.2-1.2,0.7-1.5s1.2-0.5,2.2-0.5l1.1,0V7c0-0.7-0.3-1-1-1c-0.5,0-1.1,0.2-1.8,0.5l-0.6-1.2
			c0.8-0.4,1.6-0.6,2.5-0.6c0.9,0,1.6,0.2,2,0.6S89,6.2,89,7v4.4H87.8z M86.3,4.1c-0.2-0.2-0.6-0.5-1.1-0.8s-0.8-0.7-1.1-1V2.2h2
			c0.2,0.4,0.7,1,1.4,1.8v0.2H86.3z M87.2,8.3l-0.7,0c-0.5,0-0.9,0.1-1.2,0.3S85,9.1,85,9.4c0,0.5,0.3,0.8,0.9,0.8
			c0.4,0,0.7-0.1,1-0.4s0.4-0.6,0.4-0.9V8.3z"/>
		<path fill="#666666" d="M42.1,23.4c0,0.7-0.2,1.2-0.7,1.5s-1.2,0.5-2.1,0.5c-0.5,0-0.9,0-1.2-0.1s-0.7-0.2-0.9-0.3v-1.5
			c0.3,0.2,0.7,0.3,1.1,0.4s0.8,0.2,1.1,0.2c0.6,0,1-0.2,1-0.6c0-0.1,0-0.3-0.1-0.3s-0.2-0.2-0.4-0.3s-0.5-0.2-0.8-0.4
			c-0.5-0.2-0.9-0.4-1.1-0.6s-0.4-0.4-0.5-0.6s-0.2-0.5-0.2-0.9c0-0.6,0.2-1,0.7-1.4s1.1-0.5,1.9-0.5c0.8,0,1.6,0.2,2.3,0.5
			l-0.5,1.3c-0.3-0.1-0.6-0.3-0.9-0.3S40,20,39.7,20c-0.5,0-0.8,0.1-0.8,0.4c0,0.2,0.1,0.3,0.3,0.4s0.5,0.3,1.1,0.5
			c0.5,0.2,0.9,0.4,1.1,0.6s0.4,0.4,0.5,0.6S42.1,23.1,42.1,23.4z"/>
		<path fill="#666666" d="M47.1,25.5c-0.8,0-1.4-0.3-1.8-0.8h-0.1c0.1,0.5,0.1,0.9,0.1,0.9v2.7h-1.8v-9.4h1.5l0.3,0.8h0.1
			c0.4-0.6,1-1,1.9-1c0.8,0,1.4,0.3,1.8,0.9s0.7,1.4,0.7,2.5c0,0.7-0.1,1.3-0.3,1.8s-0.5,0.9-0.9,1.2S47.6,25.5,47.1,25.5z
			 M46.5,20.1c-0.4,0-0.8,0.1-1,0.4s-0.3,0.7-0.3,1.3v0.2c0,0.7,0.1,1.2,0.3,1.5s0.5,0.5,1,0.5c0.8,0,1.2-0.7,1.2-2
			c0-0.6-0.1-1.1-0.3-1.5S47,20.1,46.5,20.1z"/>
		<path fill="#666666" d="M54,25.5c-1.1,0-1.9-0.3-2.5-0.9s-0.9-1.4-0.9-2.5c0-1.1,0.3-1.9,0.8-2.5s1.3-0.9,2.3-0.9
			c0.9,0,1.6,0.3,2.2,0.8s0.8,1.3,0.8,2.2v0.9h-4.2c0,0.5,0.2,0.9,0.5,1.2s0.7,0.4,1.2,0.4c0.4,0,0.8,0,1.1-0.1s0.7-0.2,1.1-0.4V25
			c-0.3,0.2-0.6,0.3-1,0.3S54.5,25.5,54,25.5z M53.8,20c-0.4,0-0.7,0.1-0.9,0.4s-0.3,0.6-0.4,1H55c0-0.4-0.1-0.8-0.3-1
			S54.1,20,53.8,20z"/>
		<path fill="#666666" d="M60.8,25.5c-2,0-3.1-1.1-3.1-3.4c0-1.1,0.3-2,0.8-2.6s1.3-0.9,2.4-0.9c0.8,0,1.4,0.1,2,0.4l-0.5,1.4
			c-0.3-0.1-0.5-0.2-0.8-0.3s-0.5-0.1-0.7-0.1c-0.9,0-1.4,0.7-1.4,2c0,1.3,0.5,1.9,1.4,1.9c0.3,0,0.7,0,1-0.1s0.6-0.2,0.9-0.4V25
			c-0.3,0.2-0.6,0.3-0.9,0.4S61.3,25.5,60.8,25.5z"/>
		<path fill="#666666" d="M64.2,17.1c0-0.6,0.3-0.9,1-0.9s1,0.3,1,0.9c0,0.3-0.1,0.5-0.2,0.6S65.5,18,65.2,18
			C64.6,18,64.2,17.7,64.2,17.1z M66.1,25.4h-1.8v-6.6h1.8V25.4z"/>
		<path fill="#666666" d="M72.1,25.4l-0.3-0.9h0c-0.3,0.4-0.6,0.6-0.9,0.8s-0.7,0.2-1.2,0.2c-0.6,0-1.1-0.2-1.5-0.5
			s-0.5-0.9-0.5-1.5c0-0.7,0.2-1.2,0.7-1.5s1.2-0.5,2.2-0.5l1.1,0V21c0-0.7-0.3-1-1-1c-0.5,0-1.1,0.2-1.8,0.5l-0.6-1.2
			c0.8-0.4,1.6-0.6,2.5-0.6c0.9,0,1.6,0.2,2,0.6s0.7,1,0.7,1.7v4.4H72.1z M71.6,22.3l-0.7,0c-0.5,0-0.9,0.1-1.2,0.3
			s-0.4,0.4-0.4,0.8c0,0.5,0.3,0.8,0.9,0.8c0.4,0,0.7-0.1,1-0.4s0.4-0.6,0.4-0.9V22.3z"/>
		<path fill="#666666" d="M77,25.4h-1.8v-9.1H77V25.4z"/>
		<path fill="#666666" d="M78.8,17.1c0-0.6,0.3-0.9,1-0.9s1,0.3,1,0.9c0,0.3-0.1,0.5-0.2,0.6S80.1,18,79.8,18
			C79.1,18,78.8,17.7,78.8,17.1z M80.7,25.4h-1.8v-6.6h1.8V25.4z"/>
	</g>
	<g>
		<polygon fill="#666666" points="10.7,9.7 12.1,8.3 8.1,4.1 8.1,3.8 8.4,3.8 12.4,8 13.8,6.6 9.9,2.6 6.7,2.6 6.7,5.6 		"/>
		<path fill="#666666" d="M19.4,15.5c1.2,0.1,2-0.1,2.6-0.4L18,11l-1.3,1.4l2.3,2.4L18.7,15l-2.3-2.4L15,14.1l3.8,4
			C19.2,17.5,19.4,16.7,19.4,15.5z"/>
		<path fill="#666666" d="M22.5,12.3c1.5,2.9,0.4,3.9-2.6,3.8c0,3-1.2,4.1-3.9,2.4c1,3.1,4.1,2.7,5.2-1
			C24.2,16.9,26.2,13.9,22.5,12.3z"/>
		<path fill="#666666" d="M26.1,20.1l-0.7-0.7c-1.3-1.4-2.9-2-3.6-1.4c-0.6,0.6-0.1,2.2,1.3,3.6l0.7,0.7c1.3,1.4,2.9,2,3.6,1.4
			C28,23.1,27.4,21.5,26.1,20.1z"/>
		<path fill="#666666" d="M6.7,15.1c0.5,0.4,1.4,0.5,2.6,0.4c0,1.2,0.2,2.1,0.6,2.6L22,5.6l0-3l-3.2,0L6.7,15.1L6.7,15.1z M20.3,3.8
			l0.3,0l0,0.3L10,15.1l-0.3-0.3L20.3,3.8z"/>
		<path fill="#666666" d="M8.7,16.1c-2.9,0.1-4-0.9-2.6-3.8c-3.7,1.7-1.7,4.6,1.2,5.2c1.1,3.7,4.2,4.1,5.2,1
			C9.9,20.2,8.8,19.1,8.7,16.1z"/>
		<path fill="#666666" d="M3.3,19.5l-0.7,0.7c-1.3,1.4-1.9,3-1.3,3.6c0.6,0.6,2.2,0,3.6-1.4l0.7-0.7c1.3-1.4,1.9-3,1.3-3.6
			C6.2,17.5,4.6,18.1,3.3,19.5z"/>
	</g>
</g>
</svg>
