<?xml version="1.0" encoding="utf-8"?>
<!-- Generator: Adobe Illustrator 17.1.0, SVG Export Plug-In . SVG Version: 6.00 Build 0)  -->
<!DOCTYPE svg PUBLIC "-//W3C//DTD SVG 1.1//EN" "http://www.w3.org/Graphics/SVG/1.1/DTD/svg11.dtd">
<svg version="1.1" id="Layer_1" xmlns="http://www.w3.org/2000/svg" xmlns:xlink="http://www.w3.org/1999/xlink" x="0px" y="0px"
	 viewBox="0 0 116 30" enable-background="new 0 0 116 30" xml:space="preserve">
<g>
	<g>
		<path fill="#666666" d="M12.3,11.6H5c-0.3,0-0.5,0.2-0.6,0.5L3,16.9l9.8,1.1l0.8-3.7C13.1,13.5,12.7,12.6,12.3,11.6z"/>
		<path fill="#666666" d="M23.5,16.2c-0.1,0.2-0.2,0.3-0.4,0.5c-0.6,0.8-1.2,1.6-1.7,2.2l2.9,0.3L23.5,16.2z"/>
		<path fill="#666666" d="M15.1,16.8C15.1,16.7,15.1,16.7,15.1,16.8l-0.3,1.5l1.6,0.2C16,17.9,15.5,17.4,15.1,16.8z"/>
		<path fill="#666666" d="M1.1,23.5c-0.1,0.2,0,0.4,0.1,0.6c0.1,0.2,0.3,0.3,0.5,0.3h9.7l0.9-4.4l-9.9-1.1L1.1,23.5z"/>
		<path fill="#666666" d="M25,21.3l-10.6-1.2l-0.9,4.1H25c0.4,0,0.7-0.3,0.7-0.7c0-0.1,0-0.2,0-0.2L25,21.3z"/>
		<path fill="#666666" d="M12.6,8.3c0,2.7,1.8,5.8,3.3,7.9c1.2,1.7,2.4,3,3,3.6c0.1,0.1,0.2,0.1,0.3,0.1c0.1,0,0.2,0,0.3-0.1
			c0.6-0.6,1.8-2,3-3.6c1.5-2.1,3.3-5.2,3.3-7.9c0-3.5-2.9-6.4-6.4-6.5H19C15.5,1.8,12.6,4.7,12.6,8.3z M19.1,4.2c2.2,0,4,1.8,4,4
			c0,2.2-1.8,4-4,4c-2.2,0-4-1.8-4-4C15.2,6,17,4.2,19.1,4.2z"/>
	</g>
	<g>
		<path fill="#666666" d="M42.2,11.4l-2.1-6.7h-0.1c0.1,1.4,0.1,2.3,0.1,2.7v4h-1.6V2.8h2.5l2,6.6h0l2.2-6.6h2.5v8.6h-1.7V7.3
			c0-0.2,0-0.4,0-0.7s0-0.9,0.1-2h-0.1l-2.2,6.7H42.2z"/>
		<path fill="#666666" d="M53.9,11.4l-0.3-0.9h0c-0.3,0.4-0.6,0.6-0.9,0.8s-0.7,0.2-1.2,0.2c-0.6,0-1.1-0.2-1.5-0.5
			s-0.5-0.9-0.5-1.5c0-0.7,0.2-1.2,0.7-1.5s1.2-0.5,2.2-0.5l1.1,0V7c0-0.7-0.3-1-1-1c-0.5,0-1.1,0.2-1.8,0.5L50,5.3
			c0.8-0.4,1.6-0.6,2.5-0.6c0.9,0,1.6,0.2,2,0.6s0.7,1,0.7,1.7v4.4H53.9z M53.4,8.3l-0.7,0c-0.5,0-0.9,0.1-1.2,0.3s-0.4,0.4-0.4,0.8
			c0,0.5,0.3,0.8,0.9,0.8c0.4,0,0.7-0.1,1-0.4s0.4-0.6,0.4-0.9V8.3z"/>
		<path fill="#666666" d="M60.6,11.5c-0.8,0-1.4-0.3-1.8-0.8h-0.1c0.1,0.5,0.1,0.9,0.1,0.9v2.7H57V4.8h1.5l0.3,0.8h0.1
			c0.4-0.6,1-1,1.9-1c0.8,0,1.4,0.3,1.8,0.9s0.7,1.4,0.7,2.5c0,0.7-0.1,1.3-0.3,1.8s-0.5,0.9-0.9,1.2S61.1,11.5,60.6,11.5z
			 M60.1,6.1c-0.4,0-0.8,0.1-1,0.4s-0.3,0.7-0.3,1.3v0.2c0,0.7,0.1,1.2,0.3,1.5s0.5,0.5,1,0.5c0.8,0,1.2-0.7,1.2-2
			c0-0.6-0.1-1.1-0.3-1.5S60.5,6.1,60.1,6.1z"/>
		<path fill="#666666" d="M68.2,11.5c-0.8,0-1.4-0.3-1.8-0.8h-0.1c0.1,0.5,0.1,0.9,0.1,0.9v2.7h-1.8V4.8h1.5l0.3,0.8h0.1
			c0.4-0.6,1-1,1.9-1c0.8,0,1.4,0.3,1.8,0.9s0.7,1.4,0.7,2.5c0,0.7-0.1,1.3-0.3,1.8s-0.5,0.9-0.9,1.2S68.7,11.5,68.2,11.5z
			 M67.7,6.1c-0.4,0-0.8,0.1-1,0.4s-0.3,0.7-0.3,1.3v0.2c0,0.7,0.1,1.2,0.3,1.5s0.5,0.5,1,0.5c0.8,0,1.2-0.7,1.2-2
			c0-0.6-0.1-1.1-0.3-1.5S68.1,6.1,67.7,6.1z"/>
		<path fill="#666666" d="M76.4,11.4L76,10.5h0c-0.3,0.4-0.6,0.6-0.9,0.8s-0.7,0.2-1.2,0.2c-0.6,0-1.1-0.2-1.5-0.5s-0.5-0.9-0.5-1.5
			c0-0.7,0.2-1.2,0.7-1.5s1.2-0.5,2.2-0.5l1.1,0V7c0-0.7-0.3-1-1-1c-0.5,0-1.1,0.2-1.8,0.5l-0.6-1.2c0.8-0.4,1.6-0.6,2.5-0.6
			c0.9,0,1.6,0.2,2,0.6s0.7,1,0.7,1.7v4.4H76.4z M75.9,8.3l-0.7,0c-0.5,0-0.9,0.1-1.2,0.3s-0.4,0.4-0.4,0.8c0,0.5,0.3,0.8,0.9,0.8
			c0.4,0,0.7-0.1,1-0.4s0.4-0.6,0.4-0.9V8.3z"/>
		<path fill="#666666" d="M40.5,25.5c-0.8,0-1.4-0.3-1.8-0.9s-0.7-1.4-0.7-2.5c0-1.1,0.2-1.9,0.7-2.5s1.1-0.9,1.8-0.9
			c0.8,0,1.5,0.3,1.9,1h0.1c-0.1-0.5-0.1-0.9-0.1-1.3v-2.1h1.8v9.1h-1.4l-0.3-0.8h-0.1C42,25.2,41.4,25.5,40.5,25.5z M41.2,24.1
			c0.5,0,0.8-0.1,1-0.4s0.3-0.7,0.3-1.4v-0.2c0-0.7-0.1-1.2-0.3-1.5s-0.6-0.5-1.1-0.5c-0.4,0-0.7,0.2-0.9,0.5s-0.3,0.8-0.3,1.5
			s0.1,1.1,0.3,1.5S40.8,24.1,41.2,24.1z"/>
		<path fill="#666666" d="M49,25.5c-1.1,0-1.9-0.3-2.5-0.9s-0.9-1.4-0.9-2.5c0-1.1,0.3-1.9,0.8-2.5s1.3-0.9,2.3-0.9
			c0.9,0,1.6,0.3,2.2,0.8s0.8,1.3,0.8,2.2v0.9h-4.2c0,0.5,0.2,0.9,0.5,1.2s0.7,0.4,1.2,0.4c0.4,0,0.8,0,1.1-0.1s0.7-0.2,1.1-0.4V25
			c-0.3,0.2-0.6,0.3-1,0.3S49.5,25.5,49,25.5z M48.8,20c-0.4,0-0.7,0.1-0.9,0.4s-0.3,0.6-0.4,1H50c0-0.4-0.1-0.8-0.3-1
			S49.2,20,48.8,20z"/>
		<path fill="#666666" d="M54.9,25.4h-1.8v-9.1h1.8V25.4z"/>
		<path fill="#666666" d="M58.6,25.4h-1.8v-9.1h1.8V25.4z"/>
		<path fill="#666666" d="M64.6,25.4l-0.3-0.9h0c-0.3,0.4-0.6,0.6-0.9,0.8s-0.7,0.2-1.2,0.2c-0.6,0-1.1-0.2-1.5-0.5S60,24.1,60,23.4
			c0-0.7,0.2-1.2,0.7-1.5s1.2-0.5,2.2-0.5l1.1,0V21c0-0.7-0.3-1-1-1c-0.5,0-1.1,0.2-1.8,0.5l-0.6-1.2c0.8-0.4,1.6-0.6,2.5-0.6
			c0.9,0,1.6,0.2,2,0.6s0.7,1,0.7,1.7v4.4H64.6z M64.1,22.3l-0.7,0c-0.5,0-0.9,0.1-1.2,0.3s-0.4,0.4-0.4,0.8c0,0.5,0.3,0.8,0.9,0.8
			c0.4,0,0.7-0.1,1-0.4s0.4-0.6,0.4-0.9V22.3z"/>
		<path fill="#666666" d="M74.6,18.2c-0.7,0-1.2,0.3-1.6,0.8s-0.6,1.2-0.6,2.1c0,1.9,0.7,2.9,2.2,2.9c0.6,0,1.3-0.2,2.2-0.5v1.5
			c-0.7,0.3-1.5,0.4-2.4,0.4c-1.2,0-2.2-0.4-2.9-1.1s-1-1.8-1-3.3c0-0.9,0.2-1.7,0.5-2.3s0.8-1.2,1.4-1.5s1.3-0.5,2.1-0.5
			c0.8,0,1.7,0.2,2.5,0.6l-0.6,1.5c-0.3-0.2-0.6-0.3-1-0.4S74.9,18.2,74.6,18.2z"/>
		<path fill="#666666" d="M83.1,25.4l-0.2-0.8h-0.1c-0.2,0.3-0.5,0.5-0.8,0.7s-0.8,0.2-1.2,0.2c-0.8,0-1.3-0.2-1.7-0.6
			s-0.6-1-0.6-1.8v-4.3h1.8v3.8c0,0.5,0.1,0.8,0.3,1.1s0.4,0.4,0.8,0.4c0.5,0,0.9-0.2,1.1-0.5s0.3-0.9,0.3-1.7v-3.1h1.8v6.6H83.1z"
			/>
		<path fill="#666666" d="M88.2,25.4h-1.8v-9.1h1.8V25.4z"/>
		<path fill="#666666" d="M92.8,24.1c0.3,0,0.7-0.1,1.1-0.2v1.3c-0.4,0.2-1,0.3-1.6,0.3c-0.7,0-1.2-0.2-1.6-0.5s-0.5-0.9-0.5-1.6
			v-3.2h-0.9v-0.8l1-0.6l0.5-1.4H92v1.4h1.8v1.3H92v3.2c0,0.3,0.1,0.4,0.2,0.6S92.6,24.1,92.8,24.1z"/>
		<path fill="#666666" d="M99.9,25.4l-0.2-0.8h-0.1c-0.2,0.3-0.5,0.5-0.8,0.7s-0.8,0.2-1.2,0.2c-0.8,0-1.3-0.2-1.7-0.6
			s-0.6-1-0.6-1.8v-4.3H97v3.8c0,0.5,0.1,0.8,0.3,1.1s0.4,0.4,0.8,0.4c0.5,0,0.9-0.2,1.1-0.5s0.3-0.9,0.3-1.7v-3.1h1.8v6.6H99.9z"/>
		<path fill="#666666" d="M106.8,18.7c0.2,0,0.4,0,0.6,0.1l-0.1,1.7c-0.1,0-0.3-0.1-0.5-0.1c-0.6,0-1,0.1-1.3,0.4s-0.5,0.7-0.5,1.2
			v3.3h-1.8v-6.6h1.4l0.3,1.1h0.1c0.2-0.4,0.5-0.7,0.8-0.9S106.4,18.7,106.8,18.7z"/>
		<path fill="#666666" d="M112.7,25.4l-0.3-0.9h0c-0.3,0.4-0.6,0.6-0.9,0.8s-0.7,0.2-1.2,0.2c-0.6,0-1.1-0.2-1.5-0.5
			s-0.5-0.9-0.5-1.5c0-0.7,0.2-1.2,0.7-1.5s1.2-0.5,2.2-0.5l1.1,0V21c0-0.7-0.3-1-1-1c-0.5,0-1.1,0.2-1.8,0.5l-0.6-1.2
			c0.8-0.4,1.6-0.6,2.5-0.6c0.9,0,1.6,0.2,2,0.6s0.7,1,0.7,1.7v4.4H112.7z M112.2,22.3l-0.7,0c-0.5,0-0.9,0.1-1.2,0.3
			s-0.4,0.4-0.4,0.8c0,0.5,0.3,0.8,0.9,0.8c0.4,0,0.7-0.1,1-0.4s0.4-0.6,0.4-0.9V22.3z"/>
	</g>
</g>
</svg>
