<?xml version="1.0" encoding="utf-8"?>
<!-- Generator: Adobe Illustrator 17.1.0, SVG Export Plug-In . SVG Version: 6.00 Build 0)  -->
<!DOCTYPE svg PUBLIC "-//W3C//DTD SVG 1.1//EN" "http://www.w3.org/Graphics/SVG/1.1/DTD/svg11.dtd">
<svg version="1.1" id="Layer_1" xmlns="http://www.w3.org/2000/svg" xmlns:xlink="http://www.w3.org/1999/xlink" x="0px" y="0px"
	 viewBox="0 0 98 97" enable-background="new 0 0 98 97" xml:space="preserve">
<g>
	<g>
		<path fill="#39B1B7" d="M25.9,21.1c-1.4-0.8-2.5-0.2-2.5,1.5l0.1,18.3c0,1.7,1.2,2.3,2.6,1.5l15.3-9.1c1.4-0.8,1.4-2.2,0-3
			L25.9,21.1z"/>
		<path fill="#39B1B7" d="M44.4,56.7c-1-1.7-0.9-3.8-0.1-5.5c-0.6,0.4-1.2,0.8-1.8,1.2c-11.3,6.7-25.7,2.7-32.2-8.8
			c-6.5-11.5-2.6-26.3,8.6-33C30.2,4,44.6,7.9,51.1,19.4c5.4,9.5,3.7,21.2-3.4,28.8c0.6-0.2,1.2-0.3,1.8-0.3c1.7,0,3.4,0.7,4.5,1.8
			c3.7-5.1,5.9-11.2,5.9-17.5v-1.4c0-4.9-1.3-9.8-3.9-14.4C48,2,30.2-2.9,16.1,5.4C2,13.7-2.9,32.2,5.2,46.6
			C13.3,61,31,65.9,45,57.8L44.4,56.7z"/>
		<path fill="#BABABA" d="M96.1,73.2L84.2,51.7c-1.1-0.7-2.6-0.8-3.8-0.2c-1.6,0.9-2.3,3.1-1.4,4.8l2.8,5.1l-2.1,1.1l-4-7.2
			c-0.9-1.6-3.1-2.3-4.8-1.4c-1.6,0.9-2.3,3.1-1.4,4.8l2.8,5.1l-2.1,1.1l-4-7.2c-0.9-1.6-3.1-2.3-4.8-1.4c-1.6,0.9-2.3,3.1-1.4,4.8
			l5.1,9.2l-2.1,1.1L52.7,52.1c-0.1-0.2-0.2-0.3-0.3-0.5c-1-1.3-3-1.7-4.5-0.9c-1.6,0.9-2.3,3.1-1.4,4.8l0.5,0.9l11.2,20.2
			c-6.8-2.1-15.1-4-16.1-0.5c-1,3.5,8.3,6.4,23.8,15.5c7.1,4.1,13.9,5.7,21.7,1.4C94.8,89.2,98.1,80.8,96.1,73.2z"/>
	</g>
</g>
</svg>
