<?xml version="1.0" encoding="utf-8"?>
<!-- Generator: Adobe Illustrator 17.1.0, SVG Export Plug-In . SVG Version: 6.00 Build 0)  -->
<!DOCTYPE svg PUBLIC "-//W3C//DTD SVG 1.1//EN" "http://www.w3.org/Graphics/SVG/1.1/DTD/svg11.dtd">
<svg version="1.1" id="Layer_1" xmlns="http://www.w3.org/2000/svg" xmlns:xlink="http://www.w3.org/1999/xlink" x="0px" y="0px"
	 viewBox="0 0 88 78" enable-background="new 0 0 88 78" xml:space="preserve">
<g>
	<path fill="#39B1B7" d="M77,30.5H46.8c0-9.1,3.4-9.6,9.1-10.4c5.9-0.8,14-1.9,14-16.1c0-1.6-1.3-2.8-2.8-2.8
		c-1.6,0-2.8,1.2-2.8,2.8c0,9.2-3.5,9.7-9.2,10.5c-5.9,0.8-13.9,1.9-13.9,15.9H11c-5.5,0-9.9,4.4-9.9,9.9v26.4
		c0,5.5,4.4,9.9,9.9,9.9H77c5.5,0,9.9-4.4,9.9-9.9V40.4C86.9,34.9,82.5,30.5,77,30.5L77,30.5z M60.5,40.4h6.6V47h-6.6V40.4z
		 M70.4,50.3v6.6h-6.6v-6.6H70.4z M50.6,40.4h6.6V47h-6.6V40.4z M60.5,50.3v6.6h-6.6v-6.6H60.5z M40.7,40.4h6.6V47h-6.6V40.4z
		 M50.6,50.3v6.6H44v-6.6H50.6z M30.8,40.4h6.6V47h-6.6V40.4z M40.7,50.3v6.6h-6.6v-6.6H40.7z M20.9,40.4h6.6V47h-6.6V40.4z
		 M30.8,50.3v6.6h-6.6v-6.6H30.8z M11,40.4h6.6V47H11V40.4z M20.9,50.3v6.6h-6.6v-6.6H20.9z M17.6,66.8H11v-6.6h6.6V66.8z
		 M67.1,66.8H20.9v-6.6h46.2V66.8z M77,66.8h-6.6v-6.6H77V66.8z M77,47h-6.6v-6.6H77V47z M77,47"/>
</g>
</svg>
