<?xml version="1.0" encoding="utf-8"?>
<!-- Generator: Adobe Illustrator 17.1.0, SVG Export Plug-In . SVG Version: 6.00 Build 0)  -->
<!DOCTYPE svg PUBLIC "-//W3C//DTD SVG 1.1//EN" "http://www.w3.org/Graphics/SVG/1.1/DTD/svg11.dtd">
<svg version="1.1" id="Layer_1" xmlns="http://www.w3.org/2000/svg" xmlns:xlink="http://www.w3.org/1999/xlink" x="0px" y="0px"
	 viewBox="0 0 98 89" enable-background="new 0 0 98 89" xml:space="preserve">
<g>
	<path fill="#39B1B7" d="M26.4,15c0.5-4.1,0.8-7.5,1.1-11.7c0-0.7-0.2-1.3-0.3-1.3C25.4,2,22,2,22,2s0,4,0,6c-3,0-3.5,0-5.1,0
		c-0.1-2-0.3-6-0.4-6c-1.6,0-2.9,0-4.4,0c-0.1,0-0.2,4-0.3,6c-1.7,0-3,0-4.6,0C7.1,6,7,3,6.9,2C5,2,3.4,2,1.5,2
		c0.3,4,0.6,7.1,0.8,11.1c0.1,2.3,0.6,4.1,2.1,5.8c0.6,0.7,1,1.4,1.2,2.3c-0.3,4-0.6,9.5-0.8,13.4c0,0,0,0,0,0c0,0.4,0,0.8,0,1.2
		c0,1.2,0.1,2.5,0.6,3.5c4.1,8.1,9.7,14.4,17.4,19.1c0.7,0.5,1.4,0.7,2.4,1.3V60h1c-0.1-1-0.3-3.6-0.4-5.1c-0.1-0.7-0.1-1.4-0.1-2.1
		c-0.1-2.5-0.3-5.1-0.4-7.6l0,0c-0.2-4.4-0.5-8.8-0.7-13.2c-0.2-3-0.3-6-0.8-8.9c-0.3-1.9,0.1-3.3,1.3-4.8
		C25.5,17.4,26.3,16.2,26.4,15z M16,17v10h-3V17h2.2c0.7,0,0.9,0,0.9,0c0,0,0,0,0,0C16.1,17,16,17,16,17z"/>
	<path fill="#39B1B7" d="M65.1,48.2c1.1-1.5,2.9-2.6,4.9-2.9v0c0,0-0.1,0-0.1,0c0.4-6.9,0.7-13.4,1.1-20.4c0-0.4-0.2-0.8-0.3-0.8
		c-1.4,0-2.6,0-4.2,0c-0.2,0-0.3,3-0.4,7c-1.6,0-3,0-4.6,0c-0.2-4-0.3-7-0.4-7c-1.6,0-2.9,0-4.4,0c-0.1,0-0.2,3-0.4,7
		c-1.7,0-3,0-4.6,0c-0.1-4-0.2-7-0.4-7c-1.5,0-2.6,0-3.9,0c-0.2,0-0.3,3-0.5,7c-1.9,0-3.4,0-5,0c-0.1-4-0.2-7-0.4-7
		c-1.5,0-2.6,0-3.9,0c-0.1,0-0.3,5-0.4,7c-1.9,0-2.9,0-4.6,0c-0.1-2-0.3-4-0.4-7c-1.5,0-3.1,0-4.4,0c0,2-0.1,2.6,0,4.2
		c0.3,3.9,0.6,7.5,0.9,11.4c0.3,5.1,0.6,10.1,0.9,15.2c0.1,1.7,0.2,3.3,0.3,4.9c0.1,0.8,0.5,1.9,1.1,2.2c3,1.5,6.2,2.3,9.8,2.9
		l0,0.2h0c0.1-1,0.2-2.4,0.3-3.4c0-2.7,0-5.5,0.1-8.2c0.1-3.4,2.5-6.6,5.6-7.6c4.3-1.3,8.5,1.1,10,5c1.4-1.8,3.5-2.9,5.9-2.9h0h0
		C63.6,48,64.5,48,65.1,48.2z"/>
	<path fill="#39B1B7" d="M86,36.8V49c3-2.9,5-6,6.8-9.6c0.6-1.1,1-2.6,0.9-3.9c-0.2-3.7-0.5-7.4-0.9-11c-0.2-2.5-0.1-4.8,1.7-6.8
		c0.8-0.9,1.2-2.4,1.4-3.7c0.3-2.3,0.5-3.9,0.6-6.3c0.1-2.1,0-5.7,0-5.7c-1.6,0-3.3,0-5.1,0c-0.1,0-0.2,4-0.4,6c-1.7,0-3.1,0-4.6,0
		c-0.1-2-0.2-6-0.4-6c-1.6,0-2.9,0-4.4,0c-0.1,0-0.2,4-0.3,6c-1.8,0-3.1,0-4.7,0c-0.1-2-0.3-6-0.4-6c-2,0-3.6,0-5.5,0
		c0,0-0.1,1.1,0,1.9c0.3,3.2,0.8,6.1,0.9,9.3c0.1,2.3,0.7,4,2.1,5.8c0.7,0.9,1.1,2.2,1,3.4c-0.2,2.8-0.4,5.6-0.6,8.5
		c1.3-1,2.8-1.6,4.5-1.6C82.8,29.3,86,32.7,86,36.8z M82,17.8c0-0.7,0,0.2,0-0.8h4v10h-4V17.8z"/>
	<path fill="#39B1B7" d="M57.4,56.7c0,0,0.2,0,0.2,0c0,0,0,0,0,0C57.5,56.7,57.4,56.7,57.4,56.7L57.4,56.7z"/>
	<path fill="#39B1B7" d="M70.6,48.7c0.1,0,0.2,0,0.3,0l0,0C70.8,48.7,70.7,48.7,70.6,48.7z"/>
	<path fill="#39B1B7" d="M69.6,48.9C69.6,48.9,69.6,48.9,69.6,48.9c-0.1,0-0.1,0.1-0.1,0.1C69.6,49,69.6,48.9,69.6,48.9
		C69.6,48.9,69.6,48.9,69.6,48.9z"/>
	<g>
		<path fill="#BABABA" d="M95.3,58.2c-0.2-1-0.8-2-1.7-2.6c-0.7-0.5-1.5-0.7-2.2-0.7c-1.3,0-2.6,0.6-3.3,1.8l-4.5,6.7
			c-0.1,0.1-0.1,0.2-0.3,0.2c0,0,0,0,0,0c0,0,0,0,0,0c0,0,0,0,0,0c0,0,0,0,0,0c0,0,0,0,0,0c-0.1,0-0.2-0.1-0.2-0.2
			c0,0-0.1-0.1-0.1-0.1V52.6V36.8c0-2.2-1.8-4-4-4c-2.2,0-4,1.8-4,4v14.6c-1-1-1.2-1.8-2.1-2.3c-0.1,2.1-0.3,4.2-0.4,6.3l1.2,3.5
			c0.6-0.3,1.1-0.5,1.6-0.8c1-0.6,1.7-1.3,2.7-1.9c-1,0.7-1.7,1.3-2.7,1.9c-0.1,0.1-0.2,0.1-0.3,0.2c-0.4,0.2-0.9,0.4-1.3,0.7l0,0
			c0,0,0,0,0,0l0-0.1c0,0,0,0,0,0l-1.2-3.6c0,0.5-0.1,0.9-0.1,1.4c0,0.7,0.1,1.5,0.1,2.6c-0.1,0-0.2,0-0.3,0.1c-0.1-1.2,0-1.9,0-2.7
			c0-0.5,0.1-0.9,0.2-1.4l0,0l-0.6-1.8l0.1,0.3l0.5,1.4l0,0l0,0c0,0,0,0,0-0.1l0,0.1c0,0,0,0,0-0.1l0,0c0.1-2.1,0.3-4.2,0.4-6.2
			c-0.5-0.3-1.2-0.5-1.8-0.5c-0.1,0-0.2,0-0.3,0c-0.3,0-0.7,0.1-1,0.2c0,0,0,0,0,0c0,0-0.1,0-0.1,0c0,0,0,0,0,0c0,0.3,0,0.6,0,0.8
			c0-0.2,0-0.5,0-0.7C68,49.7,67,51,67,52.7v2.7c0-2.2-1.8-4-4-4c-2.2,0-4,1.8-4,4V57c-1-0.1-0.7-0.2-1.1-0.2c0,0.9,0.1,1.8,0.1,2.8
			c0,0.2-0.2,0.4-0.2,0.6c0,0-0.2-0.1-0.2-0.1c0,0,0,0,0,0c0-0.2,0-0.4,0-0.6c0-0.9-0.3-1.8-0.3-2.7c0,0-0.3,0-0.4,0c0,0,0,0,0,0
			c-2.2,0-4,1.8-4,4V86c0,0.9,1.2,2,2.1,2h21.1c0.5,0,1-0.5,1.3-0.9l17.2-25.8C95.3,60.4,95.5,59.2,95.3,58.2z M57,60.7
			c0-0.2,0.1-0.3,0.2-0.4l0,0C57.1,60.4,57,60.6,57,60.7z M69.6,49c0,0.3-0.1,0.9-0.1,1.2c-0.1,1.8-0.3,3.7-0.5,5.6
			c0.2-1.9,0.4-3.8,0.5-5.6c0-0.1,0-0.2,0-0.3C69.5,49.6,69.6,49.3,69.6,49z M66.2,62.8c-2.6,0.7-5.2,1.3-8.1,2.2
			c0-0.2,0-0.3-0.1-0.5c-0.2-1.1-0.4-2-0.4-2.8c0-0.4,0-0.8,0-1.1c0,0.4,0,0.8,0,1.1c0,0.8,0.2,1.7,0.4,2.8c0,0.1,0,0.3,0.1,0.4
			c3-0.8,5.5-1.6,8.1-2.2c1.5-0.4,2.2-0.9,2.3-2.5C68.4,61.7,67.6,62.4,66.2,62.8z M70,52.7c0-0.3,0.5-0.5,0.8-0.5l0,0
			C70.5,52.2,70,52.4,70,52.7z M72,59.6C72,59.6,72,59.6,72,59.6C72,59.6,72,59.6,72,59.6C72,59.6,72,59.6,72,59.6z M82,67
			c1.6,0.4,3.4-0.2,4.3-1.6l4.5-6.7c0.1-0.2,0.4-0.2,0.5-0.2c0.1,0,0.2,0,0.3,0.1c0.2,0.1,0.2,0.2,0.2,0.3c0,0,0,0.1,0,0.2
			c0,0,0,0,0-0.1c0-0.1-0.1-0.3-0.2-0.4c-0.1-0.1-0.2-0.1-0.3-0.1c-0.1,0-0.3,0-0.4,0.2l-4.5,6.7C85.5,66.8,83.6,67.4,82,67
			c-1.7-0.5-3-2-3-3.7C79,65,80.3,66.5,82,67z M73.5,59.1L78,73.1l-4.7-13.8C73.3,59.2,73.4,59.1,73.5,59.1z M92,59.7L75.3,85
			L92,59.7C91.9,59.7,92,59.6,92,59.7C92,59.6,92,59.7,92,59.7z"/>
		<path fill="#BABABA" d="M83.2,63.5C83.2,63.6,83.2,63.6,83.2,63.5L83.2,63.5C83.2,63.6,83.2,63.6,83.2,63.5z"/>
		<path fill="#BABABA" d="M83.3,63.6c0.1,0,0.2-0.1,0.3-0.2l4.5-6.7c0.8-1.2,2-1.8,3.3-1.8c0.8,0,1.5,0.2,2.2,0.7
			c0.9,0.6,1.5,1.5,1.7,2.6c-0.2-1-0.8-2-1.7-2.6c-0.7-0.5-1.5-0.7-2.2-0.7c-1.3,0-2.6,0.6-3.4,1.8l-4.5,6.7
			C83.4,63.6,83.3,63.6,83.3,63.6C83.3,63.6,83.2,63.6,83.3,63.6z"/>
	</g>
</g>
</svg>
