solid 5.4 rosoncino laterale conduttivo (repaired)
 facet normal 0.000000 0.000000 -1.000000
  outer loop
   vertex 40.750519 20.531176 7.798182
   vertex 48.628979 21.920362 7.798180
   vertex 48.750519 20.531176 7.798180
  endloop
 endfacet
 facet normal 0.996195 0.087154 0.000000
  outer loop
   vertex 48.750519 20.531176 7.798180
   vertex 48.628983 21.920362 10.098180
   vertex 48.750519 20.531176 10.098180
  endloop
 endfacet
 facet normal 0.996195 0.087157 -0.000002
  outer loop
   vertex 48.750519 20.531176 7.798180
   vertex 48.628979 21.920362 7.798180
   vertex 48.628983 21.920362 10.098180
  endloop
 endfacet
 facet normal 0.000000 0.000000 1.000000
  outer loop
   vertex 48.750519 20.531176 10.098180
   vertex 48.628983 21.920362 10.098180
   vertex 40.750519 20.531176 10.098182
  endloop
 endfacet
 facet normal 0.000000 0.000000 -1.000000
  outer loop
   vertex 40.750519 20.531176 7.798182
   vertex 48.268059 23.267338 7.798180
   vertex 48.628979 21.920362 7.798180
  endloop
 endfacet
 facet normal 0.965925 0.258821 -0.000002
  outer loop
   vertex 48.628979 21.920362 7.798180
   vertex 48.268059 23.267338 10.098181
   vertex 48.628983 21.920362 10.098180
  endloop
 endfacet
 facet normal 0.965926 0.258818 0.000000
  outer loop
   vertex 48.628979 21.920362 7.798180
   vertex 48.268059 23.267338 7.798180
   vertex 48.268059 23.267338 10.098181
  endloop
 endfacet
 facet normal 0.000000 -0.000001 1.000000
  outer loop
   vertex 48.628983 21.920362 10.098180
   vertex 48.268059 23.267338 10.098181
   vertex 40.750519 20.531176 10.098182
  endloop
 endfacet
 facet normal 0.000000 0.000000 -1.000000
  outer loop
   vertex 40.750519 20.531176 7.798182
   vertex 47.678722 24.531176 7.798181
   vertex 48.268059 23.267338 7.798180
  endloop
 endfacet
 facet normal 0.906308 0.422618 0.000000
  outer loop
   vertex 48.268059 23.267338 7.798180
   vertex 47.678722 24.531176 10.098181
   vertex 48.268059 23.267338 10.098181
  endloop
 endfacet
 facet normal 0.906308 0.422618 0.000000
  outer loop
   vertex 48.268059 23.267338 7.798180
   vertex 47.678722 24.531176 7.798181
   vertex 47.678722 24.531176 10.098181
  endloop
 endfacet
 facet normal 0.000000 0.000000 1.000000
  outer loop
   vertex 48.268059 23.267338 10.098181
   vertex 47.678722 24.531176 10.098181
   vertex 40.750519 20.531176 10.098182
  endloop
 endfacet
 facet normal 0.000000 0.000000 -1.000000
  outer loop
   vertex 40.750519 20.531176 7.798182
   vertex 46.878876 25.673477 7.798181
   vertex 47.678722 24.531176 7.798181
  endloop
 endfacet
 facet normal 0.819153 0.573576 0.000000
  outer loop
   vertex 47.678722 24.531176 7.798181
   vertex 46.878876 25.673477 10.098181
   vertex 47.678722 24.531176 10.098181
  endloop
 endfacet
 facet normal 0.819153 0.573576 0.000000
  outer loop
   vertex 47.678722 24.531176 7.798181
   vertex 46.878876 25.673477 7.798181
   vertex 46.878876 25.673477 10.098181
  endloop
 endfacet
 facet normal 0.000000 0.000000 1.000000
  outer loop
   vertex 47.678722 24.531176 10.098181
   vertex 46.878876 25.673477 10.098181
   vertex 40.750519 20.531176 10.098182
  endloop
 endfacet
 facet normal 0.000000 0.000000 -1.000000
  outer loop
   vertex 40.750519 20.531176 7.798182
   vertex 45.892818 26.659533 7.798181
   vertex 46.878876 25.673477 7.798181
  endloop
 endfacet
 facet normal 0.707106 0.707107 0.000000
  outer loop
   vertex 46.878876 25.673477 7.798181
   vertex 45.892818 26.659533 10.098181
   vertex 46.878876 25.673477 10.098181
  endloop
 endfacet
 facet normal 0.707106 0.707107 0.000000
  outer loop
   vertex 46.878876 25.673477 7.798181
   vertex 45.892818 26.659533 7.798181
   vertex 45.892818 26.659533 10.098181
  endloop
 endfacet
 facet normal 0.000000 0.000000 1.000000
  outer loop
   vertex 46.878876 25.673477 10.098181
   vertex 45.892818 26.659533 10.098181
   vertex 40.750519 20.531176 10.098182
  endloop
 endfacet
 facet normal 0.000000 0.000000 -1.000000
  outer loop
   vertex 40.750519 20.531176 7.798182
   vertex 44.750519 27.459379 7.798181
   vertex 45.892818 26.659533 7.798181
  endloop
 endfacet
 facet normal 0.573576 0.819152 0.000000
  outer loop
   vertex 45.892818 26.659533 7.798181
   vertex 44.750519 27.459379 10.098181
   vertex 45.892818 26.659533 10.098181
  endloop
 endfacet
 facet normal 0.573576 0.819152 0.000000
  outer loop
   vertex 45.892818 26.659533 7.798181
   vertex 44.750519 27.459379 7.798181
   vertex 44.750519 27.459379 10.098181
  endloop
 endfacet
 facet normal 0.000000 0.000000 1.000000
  outer loop
   vertex 45.892818 26.659533 10.098181
   vertex 44.750519 27.459379 10.098181
   vertex 40.750519 20.531176 10.098182
  endloop
 endfacet
 facet normal 0.000000 0.000000 -1.000000
  outer loop
   vertex 40.750519 20.531176 7.798182
   vertex 43.486679 28.048717 7.798181
   vertex 44.750519 27.459379 7.798181
  endloop
 endfacet
 facet normal 0.422618 0.906308 0.000000
  outer loop
   vertex 44.750519 27.459379 7.798181
   vertex 43.486679 28.048717 10.098181
   vertex 44.750519 27.459379 10.098181
  endloop
 endfacet
 facet normal 0.422618 0.906308 0.000000
  outer loop
   vertex 44.750519 27.459379 7.798181
   vertex 43.486679 28.048717 7.798181
   vertex 43.486679 28.048717 10.098181
  endloop
 endfacet
 facet normal 0.000000 0.000000 1.000000
  outer loop
   vertex 44.750519 27.459379 10.098181
   vertex 43.486679 28.048717 10.098181
   vertex 40.750519 20.531176 10.098182
  endloop
 endfacet
 facet normal 0.000000 0.000000 -1.000000
  outer loop
   vertex 40.750519 20.531176 7.798182
   vertex 42.139706 28.409637 7.798182
   vertex 43.486679 28.048717 7.798181
  endloop
 endfacet
 facet normal 0.258819 0.965926 0.000000
  outer loop
   vertex 43.486679 28.048717 7.798181
   vertex 42.139706 28.409637 10.098182
   vertex 43.486679 28.048717 10.098181
  endloop
 endfacet
 facet normal 0.258819 0.965926 0.000000
  outer loop
   vertex 43.486679 28.048717 7.798181
   vertex 42.139706 28.409637 7.798182
   vertex 42.139706 28.409637 10.098182
  endloop
 endfacet
 facet normal 0.000001 0.000000 1.000000
  outer loop
   vertex 43.486679 28.048717 10.098181
   vertex 42.139706 28.409637 10.098182
   vertex 40.750519 20.531176 10.098182
  endloop
 endfacet
 facet normal 0.000000 0.000000 -1.000000
  outer loop
   vertex 40.750519 20.531176 7.798182
   vertex 40.750519 28.531176 7.798182
   vertex 42.139706 28.409637 7.798182
  endloop
 endfacet
 facet normal 0.087156 0.996195 0.000000
  outer loop
   vertex 42.139706 28.409637 7.798182
   vertex 40.750519 28.531176 10.098182
   vertex 42.139706 28.409637 10.098182
  endloop
 endfacet
 facet normal 0.087156 0.996195 0.000000
  outer loop
   vertex 42.139706 28.409637 7.798182
   vertex 40.750519 28.531176 7.798182
   vertex 40.750519 28.531176 10.098182
  endloop
 endfacet
 facet normal 0.000000 0.000000 1.000000
  outer loop
   vertex 42.139706 28.409637 10.098182
   vertex 40.750519 28.531176 10.098182
   vertex 40.750519 20.531176 10.098182
  endloop
 endfacet
 facet normal 0.000000 0.000000 -1.000000
  outer loop
   vertex 40.750519 20.531176 7.798182
   vertex 39.361332 28.409637 7.798182
   vertex 40.750519 28.531176 7.798182
  endloop
 endfacet
 facet normal -0.087156 0.996195 0.000000
  outer loop
   vertex 40.750519 28.531176 7.798182
   vertex 39.361332 28.409637 10.098182
   vertex 40.750519 28.531176 10.098182
  endloop
 endfacet
 facet normal -0.087156 0.996195 0.000000
  outer loop
   vertex 40.750519 28.531176 7.798182
   vertex 39.361332 28.409637 7.798182
   vertex 39.361332 28.409637 10.098182
  endloop
 endfacet
 facet normal 0.000000 0.000000 1.000000
  outer loop
   vertex 40.750519 28.531176 10.098182
   vertex 39.361332 28.409637 10.098182
   vertex 40.750519 20.531176 10.098182
  endloop
 endfacet
 facet normal 0.000000 0.000000 -1.000000
  outer loop
   vertex 40.750519 20.531176 7.798182
   vertex 38.014359 28.048717 7.798182
   vertex 39.361332 28.409637 7.798182
  endloop
 endfacet
 facet normal -0.258819 0.965926 0.000000
  outer loop
   vertex 39.361332 28.409637 7.798182
   vertex 38.014359 28.048717 10.098182
   vertex 39.361332 28.409637 10.098182
  endloop
 endfacet
 facet normal -0.258819 0.965926 0.000000
  outer loop
   vertex 39.361332 28.409637 7.798182
   vertex 38.014359 28.048717 7.798182
   vertex 38.014359 28.048717 10.098182
  endloop
 endfacet
 facet normal 0.000000 0.000000 1.000000
  outer loop
   vertex 39.361332 28.409637 10.098182
   vertex 38.014359 28.048717 10.098182
   vertex 40.750519 20.531176 10.098182
  endloop
 endfacet
 facet normal 0.000000 0.000000 -1.000000
  outer loop
   vertex 40.750519 20.531176 7.798182
   vertex 36.750519 27.459379 7.798182
   vertex 38.014359 28.048717 7.798182
  endloop
 endfacet
 facet normal -0.422618 0.906308 0.000000
  outer loop
   vertex 38.014359 28.048717 7.798182
   vertex 36.750519 27.459379 10.098183
   vertex 38.014359 28.048717 10.098182
  endloop
 endfacet
 facet normal -0.422618 0.906308 0.000000
  outer loop
   vertex 38.014359 28.048717 7.798182
   vertex 36.750519 27.459379 7.798182
   vertex 36.750519 27.459379 10.098183
  endloop
 endfacet
 facet normal 0.000001 0.000000 1.000000
  outer loop
   vertex 38.014359 28.048717 10.098182
   vertex 36.750519 27.459379 10.098183
   vertex 40.750519 20.531176 10.098182
  endloop
 endfacet
 facet normal 0.000000 0.000000 -1.000000
  outer loop
   vertex 40.750519 20.531176 7.798182
   vertex 35.608219 26.659533 7.798182
   vertex 36.750519 27.459379 7.798182
  endloop
 endfacet
 facet normal -0.573576 0.819152 0.000000
  outer loop
   vertex 36.750519 27.459379 7.798182
   vertex 35.608219 26.659533 10.098183
   vertex 36.750519 27.459379 10.098183
  endloop
 endfacet
 facet normal -0.573576 0.819152 0.000000
  outer loop
   vertex 36.750519 27.459379 7.798182
   vertex 35.608219 26.659533 7.798182
   vertex 35.608219 26.659533 10.098183
  endloop
 endfacet
 facet normal 0.000000 0.000000 1.000000
  outer loop
   vertex 36.750519 27.459379 10.098183
   vertex 35.608219 26.659533 10.098183
   vertex 40.750519 20.531176 10.098182
  endloop
 endfacet
 facet normal 0.000000 0.000000 -1.000000
  outer loop
   vertex 40.750519 20.531176 7.798182
   vertex 34.622162 25.673477 7.798182
   vertex 35.608219 26.659533 7.798182
  endloop
 endfacet
 facet normal -0.707106 0.707107 0.000000
  outer loop
   vertex 35.608219 26.659533 7.798182
   vertex 34.622162 25.673477 10.098183
   vertex 35.608219 26.659533 10.098183
  endloop
 endfacet
 facet normal -0.707106 0.707107 0.000000
  outer loop
   vertex 35.608219 26.659533 7.798182
   vertex 34.622162 25.673477 7.798182
   vertex 34.622162 25.673477 10.098183
  endloop
 endfacet
 facet normal 0.000000 0.000000 1.000000
  outer loop
   vertex 35.608219 26.659533 10.098183
   vertex 34.622162 25.673477 10.098183
   vertex 40.750519 20.531176 10.098182
  endloop
 endfacet
 facet normal 0.000000 0.000000 -1.000000
  outer loop
   vertex 40.750519 20.531176 7.798182
   vertex 33.822315 24.531176 7.798183
   vertex 34.622162 25.673477 7.798182
  endloop
 endfacet
 facet normal -0.819153 0.573576 0.000000
  outer loop
   vertex 34.622162 25.673477 7.798182
   vertex 33.822315 24.531176 10.098183
   vertex 34.622162 25.673477 10.098183
  endloop
 endfacet
 facet normal -0.819153 0.573576 0.000000
  outer loop
   vertex 34.622162 25.673477 7.798182
   vertex 33.822315 24.531176 7.798183
   vertex 33.822315 24.531176 10.098183
  endloop
 endfacet
 facet normal 0.000000 0.000000 1.000000
  outer loop
   vertex 34.622162 25.673477 10.098183
   vertex 33.822315 24.531176 10.098183
   vertex 40.750519 20.531176 10.098182
  endloop
 endfacet
 facet normal 0.000000 0.000000 -1.000000
  outer loop
   vertex 40.750519 20.531176 7.798182
   vertex 33.232979 23.267338 7.798183
   vertex 33.822315 24.531176 7.798183
  endloop
 endfacet
 facet normal -0.906308 0.422618 0.000000
  outer loop
   vertex 33.822315 24.531176 7.798183
   vertex 33.232979 23.267338 10.098183
   vertex 33.822315 24.531176 10.098183
  endloop
 endfacet
 facet normal -0.906308 0.422618 0.000000
  outer loop
   vertex 33.822315 24.531176 7.798183
   vertex 33.232979 23.267338 7.798183
   vertex 33.232979 23.267338 10.098183
  endloop
 endfacet
 facet normal 0.000000 0.000000 1.000000
  outer loop
   vertex 33.822315 24.531176 10.098183
   vertex 33.232979 23.267338 10.098183
   vertex 40.750519 20.531176 10.098182
  endloop
 endfacet
 facet normal 0.000000 0.000000 -1.000000
  outer loop
   vertex 40.750519 20.531176 7.798182
   vertex 32.872055 21.920362 7.798183
   vertex 33.232979 23.267338 7.798183
  endloop
 endfacet
 facet normal -0.965925 0.258821 0.000000
  outer loop
   vertex 33.232979 23.267338 7.798183
   vertex 32.872055 21.920362 10.098183
   vertex 33.232979 23.267338 10.098183
  endloop
 endfacet
 facet normal -0.965925 0.258821 0.000000
  outer loop
   vertex 33.232979 23.267338 7.798183
   vertex 32.872055 21.920362 7.798183
   vertex 32.872055 21.920362 10.098183
  endloop
 endfacet
 facet normal 0.000000 0.000000 1.000000
  outer loop
   vertex 33.232979 23.267338 10.098183
   vertex 32.872055 21.920362 10.098183
   vertex 40.750519 20.531176 10.098182
  endloop
 endfacet
 facet normal 0.000000 0.000000 -1.000000
  outer loop
   vertex 40.750519 20.531176 7.798182
   vertex 32.750519 20.531176 7.798183
   vertex 32.872055 21.920362 7.798183
  endloop
 endfacet
 facet normal -0.996195 0.087154 0.000000
  outer loop
   vertex 32.872055 21.920362 7.798183
   vertex 32.750519 20.531176 10.098183
   vertex 32.872055 21.920362 10.098183
  endloop
 endfacet
 facet normal -0.996195 0.087154 0.000000
  outer loop
   vertex 32.872055 21.920362 7.798183
   vertex 32.750519 20.531176 7.798183
   vertex 32.750519 20.531176 10.098183
  endloop
 endfacet
 facet normal 0.000000 0.000000 1.000000
  outer loop
   vertex 32.872055 21.920362 10.098183
   vertex 32.750519 20.531176 10.098183
   vertex 40.750519 20.531176 10.098182
  endloop
 endfacet
 facet normal 0.000000 0.000000 -1.000000
  outer loop
   vertex 40.750519 20.531176 7.798182
   vertex 32.872055 19.141991 7.798183
   vertex 32.750519 20.531176 7.798183
  endloop
 endfacet
 facet normal -0.996195 -0.087155 0.000000
  outer loop
   vertex 32.750519 20.531176 7.798183
   vertex 32.872055 19.141991 10.098183
   vertex 32.750519 20.531176 10.098183
  endloop
 endfacet
 facet normal -0.996195 -0.087155 0.000000
  outer loop
   vertex 32.750519 20.531176 7.798183
   vertex 32.872055 19.141991 7.798183
   vertex 32.872055 19.141991 10.098183
  endloop
 endfacet
 facet normal 0.000000 0.000000 1.000000
  outer loop
   vertex 32.750519 20.531176 10.098183
   vertex 32.872055 19.141991 10.098183
   vertex 40.750519 20.531176 10.098182
  endloop
 endfacet
 facet normal 0.000000 0.000000 -1.000000
  outer loop
   vertex 40.750519 20.531176 7.798182
   vertex 33.232979 17.795015 7.798183
   vertex 32.872055 19.141991 7.798183
  endloop
 endfacet
 facet normal -0.965925 -0.258821 0.000000
  outer loop
   vertex 32.872055 19.141991 7.798183
   vertex 33.232979 17.795015 10.098183
   vertex 32.872055 19.141991 10.098183
  endloop
 endfacet
 facet normal -0.965925 -0.258821 0.000000
  outer loop
   vertex 32.872055 19.141991 7.798183
   vertex 33.232979 17.795015 7.798183
   vertex 33.232979 17.795015 10.098183
  endloop
 endfacet
 facet normal 0.000000 0.000000 1.000000
  outer loop
   vertex 32.872055 19.141991 10.098183
   vertex 33.232979 17.795015 10.098183
   vertex 40.750519 20.531176 10.098182
  endloop
 endfacet
 facet normal 0.000000 0.000000 -1.000000
  outer loop
   vertex 40.750519 20.531176 7.798182
   vertex 33.822315 16.531176 7.798183
   vertex 33.232979 17.795015 7.798183
  endloop
 endfacet
 facet normal -0.906308 -0.422617 0.000000
  outer loop
   vertex 33.232979 17.795015 7.798183
   vertex 33.822315 16.531176 10.098183
   vertex 33.232979 17.795015 10.098183
  endloop
 endfacet
 facet normal -0.906308 -0.422617 0.000000
  outer loop
   vertex 33.232979 17.795015 7.798183
   vertex 33.822315 16.531176 7.798183
   vertex 33.822315 16.531176 10.098183
  endloop
 endfacet
 facet normal 0.000000 0.000000 1.000000
  outer loop
   vertex 33.232979 17.795015 10.098183
   vertex 33.822315 16.531176 10.098183
   vertex 40.750519 20.531176 10.098182
  endloop
 endfacet
 facet normal 0.000000 0.000000 -1.000000
  outer loop
   vertex 40.750519 20.531176 7.798182
   vertex 34.622162 15.388875 7.798182
   vertex 33.822315 16.531176 7.798183
  endloop
 endfacet
 facet normal -0.819152 -0.573576 0.000000
  outer loop
   vertex 33.822315 16.531176 7.798183
   vertex 34.622162 15.388875 10.098183
   vertex 33.822315 16.531176 10.098183
  endloop
 endfacet
 facet normal -0.819152 -0.573576 0.000000
  outer loop
   vertex 33.822315 16.531176 7.798183
   vertex 34.622162 15.388875 7.798182
   vertex 34.622162 15.388875 10.098183
  endloop
 endfacet
 facet normal 0.000000 0.000000 1.000000
  outer loop
   vertex 33.822315 16.531176 10.098183
   vertex 34.622162 15.388875 10.098183
   vertex 40.750519 20.531176 10.098182
  endloop
 endfacet
 facet normal 0.000000 0.000000 -1.000000
  outer loop
   vertex 40.750519 20.531176 7.798182
   vertex 35.608219 14.402821 7.798182
   vertex 34.622162 15.388875 7.798182
  endloop
 endfacet
 facet normal -0.707106 -0.707108 0.000000
  outer loop
   vertex 34.622162 15.388875 7.798182
   vertex 35.608219 14.402821 10.098183
   vertex 34.622162 15.388875 10.098183
  endloop
 endfacet
 facet normal -0.707106 -0.707108 0.000000
  outer loop
   vertex 34.622162 15.388875 7.798182
   vertex 35.608219 14.402821 7.798182
   vertex 35.608219 14.402821 10.098183
  endloop
 endfacet
 facet normal 0.000000 0.000000 1.000000
  outer loop
   vertex 34.622162 15.388875 10.098183
   vertex 35.608219 14.402821 10.098183
   vertex 40.750519 20.531176 10.098182
  endloop
 endfacet
 facet normal 0.000000 0.000000 -1.000000
  outer loop
   vertex 40.750519 20.531176 7.798182
   vertex 36.750519 13.602973 7.798182
   vertex 35.608219 14.402821 7.798182
  endloop
 endfacet
 facet normal -0.573577 -0.819152 0.000000
  outer loop
   vertex 35.608219 14.402821 7.798182
   vertex 36.750519 13.602973 10.098183
   vertex 35.608219 14.402821 10.098183
  endloop
 endfacet
 facet normal -0.573577 -0.819152 0.000000
  outer loop
   vertex 35.608219 14.402821 7.798182
   vertex 36.750519 13.602973 7.798182
   vertex 36.750519 13.602973 10.098183
  endloop
 endfacet
 facet normal 0.000000 0.000000 1.000000
  outer loop
   vertex 35.608219 14.402821 10.098183
   vertex 36.750519 13.602973 10.098183
   vertex 40.750519 20.531176 10.098182
  endloop
 endfacet
 facet normal 0.000000 0.000000 -1.000000
  outer loop
   vertex 40.750519 20.531176 7.798182
   vertex 38.014359 13.013636 7.798182
   vertex 36.750519 13.602973 7.798182
  endloop
 endfacet
 facet normal -0.422618 -0.906308 0.000000
  outer loop
   vertex 36.750519 13.602973 7.798182
   vertex 38.014359 13.013636 10.098182
   vertex 36.750519 13.602973 10.098183
  endloop
 endfacet
 facet normal -0.422618 -0.906308 0.000000
  outer loop
   vertex 36.750519 13.602973 7.798182
   vertex 38.014359 13.013636 7.798182
   vertex 38.014359 13.013636 10.098182
  endloop
 endfacet
 facet normal 0.000001 0.000000 1.000000
  outer loop
   vertex 36.750519 13.602973 10.098183
   vertex 38.014359 13.013636 10.098182
   vertex 40.750519 20.531176 10.098182
  endloop
 endfacet
 facet normal 0.000000 0.000000 -1.000000
  outer loop
   vertex 40.750519 20.531176 7.798182
   vertex 39.361332 12.652714 7.798182
   vertex 38.014359 13.013636 7.798182
  endloop
 endfacet
 facet normal -0.258820 -0.965926 0.000000
  outer loop
   vertex 38.014359 13.013636 7.798182
   vertex 39.361332 12.652714 10.098182
   vertex 38.014359 13.013636 10.098182
  endloop
 endfacet
 facet normal -0.258820 -0.965926 0.000000
  outer loop
   vertex 38.014359 13.013636 7.798182
   vertex 39.361332 12.652714 7.798182
   vertex 39.361332 12.652714 10.098182
  endloop
 endfacet
 facet normal 0.000000 0.000000 1.000000
  outer loop
   vertex 38.014359 13.013636 10.098182
   vertex 39.361332 12.652714 10.098182
   vertex 40.750519 20.531176 10.098182
  endloop
 endfacet
 facet normal 0.000000 0.000000 -1.000000
  outer loop
   vertex 40.750519 20.531176 7.798182
   vertex 40.750519 12.531177 7.798182
   vertex 39.361332 12.652714 7.798182
  endloop
 endfacet
 facet normal -0.087155 -0.996195 0.000000
  outer loop
   vertex 39.361332 12.652714 7.798182
   vertex 40.750519 12.531177 10.098182
   vertex 39.361332 12.652714 10.098182
  endloop
 endfacet
 facet normal -0.087155 -0.996195 0.000000
  outer loop
   vertex 39.361332 12.652714 7.798182
   vertex 40.750519 12.531177 7.798182
   vertex 40.750519 12.531177 10.098182
  endloop
 endfacet
 facet normal 0.000000 0.000000 1.000000
  outer loop
   vertex 39.361332 12.652714 10.098182
   vertex 40.750519 12.531177 10.098182
   vertex 40.750519 20.531176 10.098182
  endloop
 endfacet
 facet normal 0.000000 0.000000 -1.000000
  outer loop
   vertex 40.750519 20.531176 7.798182
   vertex 42.139706 12.652714 7.798182
   vertex 40.750519 12.531177 7.798182
  endloop
 endfacet
 facet normal 0.087155 -0.996195 0.000000
  outer loop
   vertex 40.750519 12.531177 7.798182
   vertex 42.139706 12.652714 10.098182
   vertex 40.750519 12.531177 10.098182
  endloop
 endfacet
 facet normal 0.087155 -0.996195 0.000000
  outer loop
   vertex 40.750519 12.531177 7.798182
   vertex 42.139706 12.652714 7.798182
   vertex 42.139706 12.652714 10.098182
  endloop
 endfacet
 facet normal 0.000000 0.000000 1.000000
  outer loop
   vertex 40.750519 12.531177 10.098182
   vertex 42.139706 12.652714 10.098182
   vertex 40.750519 20.531176 10.098182
  endloop
 endfacet
 facet normal 0.000000 0.000000 -1.000000
  outer loop
   vertex 40.750519 20.531176 7.798182
   vertex 43.486679 13.013636 7.798181
   vertex 42.139706 12.652714 7.798182
  endloop
 endfacet
 facet normal 0.258820 -0.965926 0.000000
  outer loop
   vertex 42.139706 12.652714 7.798182
   vertex 43.486679 13.013636 10.098181
   vertex 42.139706 12.652714 10.098182
  endloop
 endfacet
 facet normal 0.258820 -0.965926 0.000000
  outer loop
   vertex 42.139706 12.652714 7.798182
   vertex 43.486679 13.013636 7.798181
   vertex 43.486679 13.013636 10.098181
  endloop
 endfacet
 facet normal 0.000001 0.000000 1.000000
  outer loop
   vertex 42.139706 12.652714 10.098182
   vertex 43.486679 13.013636 10.098181
   vertex 40.750519 20.531176 10.098182
  endloop
 endfacet
 facet normal 0.000000 0.000000 -1.000000
  outer loop
   vertex 40.750519 20.531176 7.798182
   vertex 44.750519 13.602973 7.798181
   vertex 43.486679 13.013636 7.798181
  endloop
 endfacet
 facet normal 0.422618 -0.906308 0.000000
  outer loop
   vertex 43.486679 13.013636 7.798181
   vertex 44.750519 13.602973 10.098181
   vertex 43.486679 13.013636 10.098181
  endloop
 endfacet
 facet normal 0.422618 -0.906308 0.000000
  outer loop
   vertex 43.486679 13.013636 7.798181
   vertex 44.750519 13.602973 7.798181
   vertex 44.750519 13.602973 10.098181
  endloop
 endfacet
 facet normal 0.000000 0.000000 1.000000
  outer loop
   vertex 43.486679 13.013636 10.098181
   vertex 44.750519 13.602973 10.098181
   vertex 40.750519 20.531176 10.098182
  endloop
 endfacet
 facet normal 0.000000 0.000000 -1.000000
  outer loop
   vertex 40.750519 20.531176 7.798182
   vertex 45.892818 14.402821 7.798181
   vertex 44.750519 13.602973 7.798181
  endloop
 endfacet
 facet normal 0.573577 -0.819152 0.000000
  outer loop
   vertex 44.750519 13.602973 7.798181
   vertex 45.892818 14.402821 10.098181
   vertex 44.750519 13.602973 10.098181
  endloop
 endfacet
 facet normal 0.573577 -0.819152 0.000000
  outer loop
   vertex 44.750519 13.602973 7.798181
   vertex 45.892818 14.402821 7.798181
   vertex 45.892818 14.402821 10.098181
  endloop
 endfacet
 facet normal 0.000000 0.000000 1.000000
  outer loop
   vertex 44.750519 13.602973 10.098181
   vertex 45.892818 14.402821 10.098181
   vertex 40.750519 20.531176 10.098182
  endloop
 endfacet
 facet normal 0.000000 0.000000 -1.000000
  outer loop
   vertex 40.750519 20.531176 7.798182
   vertex 46.878876 15.388875 7.798181
   vertex 45.892818 14.402821 7.798181
  endloop
 endfacet
 facet normal 0.707106 -0.707108 0.000000
  outer loop
   vertex 45.892818 14.402821 7.798181
   vertex 46.878876 15.388875 10.098181
   vertex 45.892818 14.402821 10.098181
  endloop
 endfacet
 facet normal 0.707106 -0.707108 0.000000
  outer loop
   vertex 45.892818 14.402821 7.798181
   vertex 46.878876 15.388875 7.798181
   vertex 46.878876 15.388875 10.098181
  endloop
 endfacet
 facet normal 0.000000 0.000000 1.000000
  outer loop
   vertex 45.892818 14.402821 10.098181
   vertex 46.878876 15.388875 10.098181
   vertex 40.750519 20.531176 10.098182
  endloop
 endfacet
 facet normal 0.000000 0.000000 -1.000000
  outer loop
   vertex 40.750519 20.531176 7.798182
   vertex 47.678722 16.531176 7.798181
   vertex 46.878876 15.388875 7.798181
  endloop
 endfacet
 facet normal 0.819152 -0.573576 0.000000
  outer loop
   vertex 46.878876 15.388875 7.798181
   vertex 47.678722 16.531176 10.098181
   vertex 46.878876 15.388875 10.098181
  endloop
 endfacet
 facet normal 0.819152 -0.573576 0.000000
  outer loop
   vertex 46.878876 15.388875 7.798181
   vertex 47.678722 16.531176 7.798181
   vertex 47.678722 16.531176 10.098181
  endloop
 endfacet
 facet normal 0.000000 0.000000 1.000000
  outer loop
   vertex 46.878876 15.388875 10.098181
   vertex 47.678722 16.531176 10.098181
   vertex 40.750519 20.531176 10.098182
  endloop
 endfacet
 facet normal 0.000000 0.000000 -1.000000
  outer loop
   vertex 40.750519 20.531176 7.798182
   vertex 48.268059 17.795015 7.798180
   vertex 47.678722 16.531176 7.798181
  endloop
 endfacet
 facet normal 0.906308 -0.422617 0.000000
  outer loop
   vertex 47.678722 16.531176 7.798181
   vertex 48.268059 17.795015 10.098181
   vertex 47.678722 16.531176 10.098181
  endloop
 endfacet
 facet normal 0.906308 -0.422617 0.000000
  outer loop
   vertex 47.678722 16.531176 7.798181
   vertex 48.268059 17.795015 7.798180
   vertex 48.268059 17.795015 10.098181
  endloop
 endfacet
 facet normal 0.000000 0.000000 1.000000
  outer loop
   vertex 47.678722 16.531176 10.098181
   vertex 48.268059 17.795015 10.098181
   vertex 40.750519 20.531176 10.098182
  endloop
 endfacet
 facet normal 0.000000 0.000000 -1.000000
  outer loop
   vertex 40.750519 20.531176 7.798182
   vertex 48.628979 19.141991 7.798180
   vertex 48.268059 17.795015 7.798180
  endloop
 endfacet
 facet normal 0.965925 -0.258821 0.000000
  outer loop
   vertex 48.268059 17.795015 7.798180
   vertex 48.628983 19.141991 10.098180
   vertex 48.268059 17.795015 10.098181
  endloop
 endfacet
 facet normal 0.965926 -0.258818 -0.000002
  outer loop
   vertex 48.268059 17.795015 7.798180
   vertex 48.628979 19.141991 7.798180
   vertex 48.628983 19.141991 10.098180
  endloop
 endfacet
 facet normal 0.000000 0.000001 1.000000
  outer loop
   vertex 48.268059 17.795015 10.098181
   vertex 48.628983 19.141991 10.098180
   vertex 40.750519 20.531176 10.098182
  endloop
 endfacet
 facet normal 0.000000 0.000000 -1.000000
  outer loop
   vertex 40.750519 20.531176 7.798182
   vertex 48.750519 20.531176 7.798180
   vertex 48.628979 19.141991 7.798180
  endloop
 endfacet
 facet normal 0.996195 -0.087155 -0.000002
  outer loop
   vertex 48.628979 19.141991 7.798180
   vertex 48.750519 20.531176 10.098180
   vertex 48.628983 19.141991 10.098180
  endloop
 endfacet
 facet normal 0.996195 -0.087157 0.000000
  outer loop
   vertex 48.628979 19.141991 7.798180
   vertex 48.750519 20.531176 7.798180
   vertex 48.750519 20.531176 10.098180
  endloop
 endfacet
 facet normal 0.000000 0.000000 1.000000
  outer loop
   vertex 48.628983 19.141991 10.098180
   vertex 48.750519 20.531176 10.098180
   vertex 40.750519 20.531176 10.098182
  endloop
 endfacet
endsolid 5.4 rosoncino laterale conduttivo (repaired)
